<mxfile host="Electron" modified="2023-09-19T16:44:45.338Z" agent="Mozilla/5.0 (X11; Linux x86_64) AppleWebKit/537.36 (KHTML, like Gecko) draw.io/21.3.7 Chrome/112.0.5615.204 Electron/24.5.0 Safari/537.36" etag="s6o4kZ5zPRxo-tqUkdQX" version="21.3.7" type="device" pages="2">
  <diagram id="C5RBs43oDa-KdzZeNtuy" name="Page-1">
    <mxGraphModel dx="989" dy="603" grid="1" gridSize="10" guides="1" tooltips="1" connect="1" arrows="1" fold="1" page="1" pageScale="1" pageWidth="827" pageHeight="1169" math="0" shadow="0">
      <root>
        <mxCell id="WIyWlLk6GJQsqaUBKTNV-0" />
        <mxCell id="WIyWlLk6GJQsqaUBKTNV-1" parent="WIyWlLk6GJQsqaUBKTNV-0" />
        <mxCell id="WIyWlLk6GJQsqaUBKTNV-2" value="" style="rounded=0;html=1;jettySize=auto;orthogonalLoop=1;fontSize=11;endArrow=block;endFill=0;endSize=8;strokeWidth=1;shadow=0;labelBackgroundColor=none;edgeStyle=orthogonalEdgeStyle;exitX=0.5;exitY=1;exitDx=0;exitDy=0;entryX=0.5;entryY=0;entryDx=0;entryDy=0;" parent="WIyWlLk6GJQsqaUBKTNV-1" source="13R2-L9PxJMe69aHAvOJ-0" target="13R2-L9PxJMe69aHAvOJ-2" edge="1">
          <mxGeometry relative="1" as="geometry" />
        </mxCell>
        <mxCell id="WIyWlLk6GJQsqaUBKTNV-6" value="&lt;p style=&quot;line-height: 100%;&quot;&gt;&lt;font face=&quot;Garamond&quot;&gt;Boa Avaliação de Desempenho?&lt;/font&gt;&lt;/p&gt;" style="rhombus;whiteSpace=wrap;html=1;shadow=0;fontFamily=Helvetica;fontSize=12;align=center;strokeWidth=1;spacing=6;spacingTop=-4;labelPadding=0;arcSize=20;movableLabel=0;" parent="WIyWlLk6GJQsqaUBKTNV-1" vertex="1">
          <mxGeometry x="190" y="290" width="120" height="60" as="geometry" />
        </mxCell>
        <mxCell id="13R2-L9PxJMe69aHAvOJ-0" value="INÍCIO" style="rounded=1;whiteSpace=wrap;html=1;fontSize=12;glass=0;strokeWidth=1;shadow=0;fontStyle=1" parent="WIyWlLk6GJQsqaUBKTNV-1" vertex="1">
          <mxGeometry x="190" y="30" width="120" height="20" as="geometry" />
        </mxCell>
        <mxCell id="13R2-L9PxJMe69aHAvOJ-2" value="&lt;font face=&quot;Garamond&quot;&gt;Aquisição de Dados&lt;/font&gt;" style="rounded=0;whiteSpace=wrap;html=1;" parent="WIyWlLk6GJQsqaUBKTNV-1" vertex="1">
          <mxGeometry x="190" y="80" width="120" height="20" as="geometry" />
        </mxCell>
        <mxCell id="13R2-L9PxJMe69aHAvOJ-4" value="&lt;font face=&quot;Garamond&quot;&gt;Interpretação dos Dados&lt;/font&gt;" style="rounded=0;whiteSpace=wrap;html=1;" parent="WIyWlLk6GJQsqaUBKTNV-1" vertex="1">
          <mxGeometry x="190" y="130" width="120" height="20" as="geometry" />
        </mxCell>
        <mxCell id="13R2-L9PxJMe69aHAvOJ-5" value="&lt;font face=&quot;Garamond&quot;&gt;Pré-processamento&lt;/font&gt;" style="rounded=0;whiteSpace=wrap;html=1;" parent="WIyWlLk6GJQsqaUBKTNV-1" vertex="1">
          <mxGeometry x="190" y="180" width="120" height="20" as="geometry" />
        </mxCell>
        <mxCell id="13R2-L9PxJMe69aHAvOJ-6" value="&lt;font face=&quot;Garamond&quot;&gt;Detecção com Sistemas Inteligentes&lt;/font&gt;" style="rounded=0;whiteSpace=wrap;html=1;" parent="WIyWlLk6GJQsqaUBKTNV-1" vertex="1">
          <mxGeometry x="190" y="230" width="120" height="30" as="geometry" />
        </mxCell>
        <mxCell id="13R2-L9PxJMe69aHAvOJ-8" value="" style="rounded=0;html=1;jettySize=auto;orthogonalLoop=1;fontSize=11;endArrow=block;endFill=0;endSize=8;strokeWidth=1;shadow=0;labelBackgroundColor=none;edgeStyle=orthogonalEdgeStyle;exitX=0.5;exitY=1;exitDx=0;exitDy=0;entryX=0.5;entryY=0;entryDx=0;entryDy=0;" parent="WIyWlLk6GJQsqaUBKTNV-1" source="13R2-L9PxJMe69aHAvOJ-2" target="13R2-L9PxJMe69aHAvOJ-4" edge="1">
          <mxGeometry relative="1" as="geometry">
            <mxPoint x="249.93" y="100" as="sourcePoint" />
            <mxPoint x="249.93" y="130" as="targetPoint" />
          </mxGeometry>
        </mxCell>
        <mxCell id="13R2-L9PxJMe69aHAvOJ-9" value="" style="rounded=0;html=1;jettySize=auto;orthogonalLoop=1;fontSize=11;endArrow=block;endFill=0;endSize=8;strokeWidth=1;shadow=0;labelBackgroundColor=none;edgeStyle=orthogonalEdgeStyle;exitX=0.5;exitY=1;exitDx=0;exitDy=0;entryX=0.5;entryY=0;entryDx=0;entryDy=0;" parent="WIyWlLk6GJQsqaUBKTNV-1" source="13R2-L9PxJMe69aHAvOJ-4" target="13R2-L9PxJMe69aHAvOJ-5" edge="1">
          <mxGeometry relative="1" as="geometry">
            <mxPoint x="249.93" y="160" as="sourcePoint" />
            <mxPoint x="249.93" y="190" as="targetPoint" />
          </mxGeometry>
        </mxCell>
        <mxCell id="13R2-L9PxJMe69aHAvOJ-10" value="" style="rounded=0;html=1;jettySize=auto;orthogonalLoop=1;fontSize=11;endArrow=block;endFill=0;endSize=8;strokeWidth=1;shadow=0;labelBackgroundColor=none;edgeStyle=orthogonalEdgeStyle;exitX=0.5;exitY=1;exitDx=0;exitDy=0;entryX=0.5;entryY=0;entryDx=0;entryDy=0;" parent="WIyWlLk6GJQsqaUBKTNV-1" source="13R2-L9PxJMe69aHAvOJ-5" target="13R2-L9PxJMe69aHAvOJ-6" edge="1">
          <mxGeometry relative="1" as="geometry">
            <mxPoint x="250" y="210" as="sourcePoint" />
            <mxPoint x="250" y="240" as="targetPoint" />
          </mxGeometry>
        </mxCell>
        <mxCell id="13R2-L9PxJMe69aHAvOJ-11" value="" style="rounded=0;html=1;jettySize=auto;orthogonalLoop=1;fontSize=11;endArrow=block;endFill=0;endSize=8;strokeWidth=1;shadow=0;labelBackgroundColor=none;edgeStyle=orthogonalEdgeStyle;exitX=0.5;exitY=1;exitDx=0;exitDy=0;entryX=0.5;entryY=0;entryDx=0;entryDy=0;" parent="WIyWlLk6GJQsqaUBKTNV-1" source="13R2-L9PxJMe69aHAvOJ-6" target="WIyWlLk6GJQsqaUBKTNV-6" edge="1">
          <mxGeometry relative="1" as="geometry">
            <mxPoint x="250" y="260" as="sourcePoint" />
            <mxPoint x="250" y="290" as="targetPoint" />
          </mxGeometry>
        </mxCell>
        <mxCell id="13R2-L9PxJMe69aHAvOJ-12" value="Sim" style="rounded=0;html=1;jettySize=auto;orthogonalLoop=1;fontSize=11;endArrow=block;endFill=0;endSize=8;strokeWidth=1;shadow=0;labelBackgroundColor=none;edgeStyle=orthogonalEdgeStyle;exitX=0;exitY=0.5;exitDx=0;exitDy=0;entryX=1;entryY=0.5;entryDx=0;entryDy=0;" parent="WIyWlLk6GJQsqaUBKTNV-1" source="WIyWlLk6GJQsqaUBKTNV-6" target="13R2-L9PxJMe69aHAvOJ-13" edge="1">
          <mxGeometry y="-10" relative="1" as="geometry">
            <mxPoint x="249.82999999999998" y="350" as="sourcePoint" />
            <mxPoint x="250" y="370" as="targetPoint" />
            <mxPoint as="offset" />
          </mxGeometry>
        </mxCell>
        <mxCell id="13R2-L9PxJMe69aHAvOJ-13" value="&lt;font face=&quot;Garamond&quot;&gt;Desempenho&lt;br&gt;Alcançado&lt;/font&gt;" style="shape=parallelogram;perimeter=parallelogramPerimeter;whiteSpace=wrap;html=1;fixedSize=1;" parent="WIyWlLk6GJQsqaUBKTNV-1" vertex="1">
          <mxGeometry x="40" y="305" width="120" height="30" as="geometry" />
        </mxCell>
        <mxCell id="13R2-L9PxJMe69aHAvOJ-14" value="FIM" style="rounded=1;whiteSpace=wrap;html=1;fontSize=12;glass=0;strokeWidth=1;shadow=0;fontStyle=1" parent="WIyWlLk6GJQsqaUBKTNV-1" vertex="1">
          <mxGeometry x="40" y="255" width="120" height="20" as="geometry" />
        </mxCell>
        <mxCell id="13R2-L9PxJMe69aHAvOJ-15" value="" style="rounded=0;html=1;jettySize=auto;orthogonalLoop=1;fontSize=11;endArrow=block;endFill=0;endSize=8;strokeWidth=1;shadow=0;labelBackgroundColor=none;edgeStyle=orthogonalEdgeStyle;exitX=0.5;exitY=0;exitDx=0;exitDy=0;entryX=0.5;entryY=1;entryDx=0;entryDy=0;" parent="WIyWlLk6GJQsqaUBKTNV-1" source="13R2-L9PxJMe69aHAvOJ-13" target="13R2-L9PxJMe69aHAvOJ-14" edge="1">
          <mxGeometry relative="1" as="geometry">
            <mxPoint x="90" y="350" as="sourcePoint" />
            <mxPoint x="90" y="380" as="targetPoint" />
          </mxGeometry>
        </mxCell>
        <mxCell id="13R2-L9PxJMe69aHAvOJ-16" value="Não" style="rounded=0;html=1;jettySize=auto;orthogonalLoop=1;fontSize=11;endArrow=block;endFill=0;endSize=8;strokeWidth=1;shadow=0;labelBackgroundColor=none;edgeStyle=orthogonalEdgeStyle;exitX=1;exitY=0.5;exitDx=0;exitDy=0;entryX=0;entryY=0.5;entryDx=0;entryDy=0;" parent="WIyWlLk6GJQsqaUBKTNV-1" source="WIyWlLk6GJQsqaUBKTNV-6" target="13R2-L9PxJMe69aHAvOJ-17" edge="1">
          <mxGeometry x="-0.3333" y="10" relative="1" as="geometry">
            <mxPoint x="350" y="310" as="sourcePoint" />
            <mxPoint x="350" y="340" as="targetPoint" />
            <mxPoint as="offset" />
          </mxGeometry>
        </mxCell>
        <mxCell id="13R2-L9PxJMe69aHAvOJ-17" value="&lt;font face=&quot;Garamond&quot;&gt;Conjunto de n+1 atributos&lt;/font&gt;" style="rounded=0;whiteSpace=wrap;html=1;" parent="WIyWlLk6GJQsqaUBKTNV-1" vertex="1">
          <mxGeometry x="340" y="305" width="120" height="30" as="geometry" />
        </mxCell>
        <mxCell id="13R2-L9PxJMe69aHAvOJ-18" value="&lt;p style=&quot;line-height: 100%;&quot;&gt;&lt;font face=&quot;Garamond&quot;&gt;Mérito maior que anterior?&lt;/font&gt;&lt;/p&gt;" style="rhombus;whiteSpace=wrap;html=1;shadow=0;fontFamily=Helvetica;fontSize=12;align=center;strokeWidth=1;spacing=6;spacingTop=-4;labelPadding=0;arcSize=20;movableLabel=0;" parent="WIyWlLk6GJQsqaUBKTNV-1" vertex="1">
          <mxGeometry x="340" y="215" width="120" height="60" as="geometry" />
        </mxCell>
        <mxCell id="13R2-L9PxJMe69aHAvOJ-19" value="Sim" style="rounded=0;html=1;jettySize=auto;orthogonalLoop=1;fontSize=11;endArrow=block;endFill=0;endSize=8;strokeWidth=1;shadow=0;labelBackgroundColor=none;edgeStyle=orthogonalEdgeStyle;exitX=0;exitY=0.5;exitDx=0;exitDy=0;entryX=1;entryY=0.5;entryDx=0;entryDy=0;" parent="WIyWlLk6GJQsqaUBKTNV-1" source="13R2-L9PxJMe69aHAvOJ-18" target="13R2-L9PxJMe69aHAvOJ-6" edge="1">
          <mxGeometry x="-0.3333" y="-10" relative="1" as="geometry">
            <mxPoint x="330" y="260" as="sourcePoint" />
            <mxPoint x="330" y="290" as="targetPoint" />
            <mxPoint as="offset" />
          </mxGeometry>
        </mxCell>
        <mxCell id="13R2-L9PxJMe69aHAvOJ-20" value="" style="rounded=0;html=1;jettySize=auto;orthogonalLoop=1;fontSize=11;endArrow=block;endFill=0;endSize=8;strokeWidth=1;shadow=0;labelBackgroundColor=none;edgeStyle=orthogonalEdgeStyle;exitX=0.5;exitY=0;exitDx=0;exitDy=0;entryX=0.5;entryY=1;entryDx=0;entryDy=0;" parent="WIyWlLk6GJQsqaUBKTNV-1" source="13R2-L9PxJMe69aHAvOJ-17" target="13R2-L9PxJMe69aHAvOJ-18" edge="1">
          <mxGeometry relative="1" as="geometry">
            <mxPoint x="390" y="270" as="sourcePoint" />
            <mxPoint x="390" y="300" as="targetPoint" />
            <Array as="points">
              <mxPoint x="400" y="290" />
              <mxPoint x="400" y="290" />
            </Array>
          </mxGeometry>
        </mxCell>
        <mxCell id="13R2-L9PxJMe69aHAvOJ-21" value="&lt;font face=&quot;Garamond&quot;&gt;Desempenho&lt;br&gt;Alcançado&lt;/font&gt;" style="shape=parallelogram;perimeter=parallelogramPerimeter;whiteSpace=wrap;html=1;fixedSize=1;" parent="WIyWlLk6GJQsqaUBKTNV-1" vertex="1">
          <mxGeometry x="340" y="150" width="120" height="30" as="geometry" />
        </mxCell>
        <mxCell id="13R2-L9PxJMe69aHAvOJ-22" value="Não" style="rounded=0;html=1;jettySize=auto;orthogonalLoop=1;fontSize=11;endArrow=block;endFill=0;endSize=8;strokeWidth=1;shadow=0;labelBackgroundColor=none;edgeStyle=orthogonalEdgeStyle;exitX=0.5;exitY=0;exitDx=0;exitDy=0;entryX=0.5;entryY=1;entryDx=0;entryDy=0;" parent="WIyWlLk6GJQsqaUBKTNV-1" source="13R2-L9PxJMe69aHAvOJ-18" target="13R2-L9PxJMe69aHAvOJ-21" edge="1">
          <mxGeometry x="-0.3333" y="-20" relative="1" as="geometry">
            <mxPoint x="400" y="200" as="sourcePoint" />
            <mxPoint x="400" y="230" as="targetPoint" />
            <mxPoint as="offset" />
          </mxGeometry>
        </mxCell>
        <mxCell id="13R2-L9PxJMe69aHAvOJ-24" value="FIM" style="rounded=1;whiteSpace=wrap;html=1;fontSize=12;glass=0;strokeWidth=1;shadow=0;fontStyle=1" parent="WIyWlLk6GJQsqaUBKTNV-1" vertex="1">
          <mxGeometry x="340" y="100" width="120" height="20" as="geometry" />
        </mxCell>
        <mxCell id="13R2-L9PxJMe69aHAvOJ-25" value="" style="rounded=0;html=1;jettySize=auto;orthogonalLoop=1;fontSize=11;endArrow=block;endFill=0;endSize=8;strokeWidth=1;shadow=0;labelBackgroundColor=none;edgeStyle=orthogonalEdgeStyle;exitX=0.5;exitY=0;exitDx=0;exitDy=0;entryX=0.5;entryY=1;entryDx=0;entryDy=0;" parent="WIyWlLk6GJQsqaUBKTNV-1" source="13R2-L9PxJMe69aHAvOJ-21" target="13R2-L9PxJMe69aHAvOJ-24" edge="1">
          <mxGeometry relative="1" as="geometry">
            <mxPoint x="400" y="130" as="sourcePoint" />
            <mxPoint x="400" y="160" as="targetPoint" />
          </mxGeometry>
        </mxCell>
      </root>
    </mxGraphModel>
  </diagram>
  <diagram id="taHLYDM2GbVUXEpjo4tY" name="Page-2">
    <mxGraphModel dx="989" dy="603" grid="1" gridSize="10" guides="1" tooltips="1" connect="1" arrows="1" fold="1" page="1" pageScale="1" pageWidth="850" pageHeight="1100" math="0" shadow="0">
      <root>
        <mxCell id="0" />
        <mxCell id="1" parent="0" />
        <mxCell id="CQG4VoJNJDL3wfPWsIUk-1" value="" style="rounded=0;html=1;jettySize=auto;orthogonalLoop=1;fontSize=11;endArrow=block;endFill=0;endSize=8;strokeWidth=1;shadow=0;labelBackgroundColor=none;edgeStyle=orthogonalEdgeStyle;exitX=0.5;exitY=1;exitDx=0;exitDy=0;entryX=0.5;entryY=0;entryDx=0;entryDy=0;" edge="1" source="CQG4VoJNJDL3wfPWsIUk-3" target="CQG4VoJNJDL3wfPWsIUk-4" parent="1">
          <mxGeometry relative="1" as="geometry" />
        </mxCell>
        <mxCell id="CQG4VoJNJDL3wfPWsIUk-2" value="&lt;p style=&quot;line-height: 100%;&quot;&gt;&lt;font face=&quot;Garamond&quot;&gt;Vulnerabilidade desconhecida?&lt;/font&gt;&lt;/p&gt;" style="rhombus;whiteSpace=wrap;html=1;shadow=0;fontFamily=Helvetica;fontSize=12;align=center;strokeWidth=1;spacing=6;spacingTop=-4;labelPadding=0;arcSize=20;movableLabel=0;" vertex="1" parent="1">
          <mxGeometry x="330" y="330" width="120" height="60" as="geometry" />
        </mxCell>
        <mxCell id="CQG4VoJNJDL3wfPWsIUk-3" value="INÍCIO" style="rounded=1;whiteSpace=wrap;html=1;fontSize=12;glass=0;strokeWidth=1;shadow=0;fontStyle=1" vertex="1" parent="1">
          <mxGeometry x="330" y="50" width="120" height="30" as="geometry" />
        </mxCell>
        <mxCell id="CQG4VoJNJDL3wfPWsIUk-4" value="&lt;font face=&quot;Garamond&quot;&gt;Aquisição de Dados&lt;/font&gt;" style="rounded=0;whiteSpace=wrap;html=1;" vertex="1" parent="1">
          <mxGeometry x="330" y="120" width="120" height="30" as="geometry" />
        </mxCell>
        <mxCell id="CQG4VoJNJDL3wfPWsIUk-5" value="&lt;font face=&quot;Garamond&quot;&gt;Interpretação dos Dados&lt;/font&gt;" style="rounded=0;whiteSpace=wrap;html=1;" vertex="1" parent="1">
          <mxGeometry x="330" y="190" width="120" height="30" as="geometry" />
        </mxCell>
        <mxCell id="CQG4VoJNJDL3wfPWsIUk-6" value="&lt;font face=&quot;Garamond&quot;&gt;Análise de Ataques e Vulnerabilidades&lt;/font&gt;" style="rounded=0;whiteSpace=wrap;html=1;" vertex="1" parent="1">
          <mxGeometry x="330" y="260" width="120" height="30" as="geometry" />
        </mxCell>
        <mxCell id="CQG4VoJNJDL3wfPWsIUk-8" value="" style="rounded=0;html=1;jettySize=auto;orthogonalLoop=1;fontSize=11;endArrow=block;endFill=0;endSize=8;strokeWidth=1;shadow=0;labelBackgroundColor=none;edgeStyle=orthogonalEdgeStyle;exitX=0.5;exitY=1;exitDx=0;exitDy=0;entryX=0.5;entryY=0;entryDx=0;entryDy=0;" edge="1" source="CQG4VoJNJDL3wfPWsIUk-4" target="CQG4VoJNJDL3wfPWsIUk-5" parent="1">
          <mxGeometry relative="1" as="geometry">
            <mxPoint x="389.93" y="190" as="sourcePoint" />
            <mxPoint x="389.93" y="220" as="targetPoint" />
          </mxGeometry>
        </mxCell>
        <mxCell id="CQG4VoJNJDL3wfPWsIUk-9" value="" style="rounded=0;html=1;jettySize=auto;orthogonalLoop=1;fontSize=11;endArrow=block;endFill=0;endSize=8;strokeWidth=1;shadow=0;labelBackgroundColor=none;edgeStyle=orthogonalEdgeStyle;exitX=0.5;exitY=1;exitDx=0;exitDy=0;entryX=0.5;entryY=0;entryDx=0;entryDy=0;" edge="1" source="CQG4VoJNJDL3wfPWsIUk-5" target="CQG4VoJNJDL3wfPWsIUk-6" parent="1">
          <mxGeometry relative="1" as="geometry">
            <mxPoint x="389.93" y="250" as="sourcePoint" />
            <mxPoint x="389.93" y="280" as="targetPoint" />
          </mxGeometry>
        </mxCell>
        <mxCell id="CQG4VoJNJDL3wfPWsIUk-10" value="" style="rounded=0;html=1;jettySize=auto;orthogonalLoop=1;fontSize=11;endArrow=block;endFill=0;endSize=8;strokeWidth=1;shadow=0;labelBackgroundColor=none;edgeStyle=orthogonalEdgeStyle;exitX=0.5;exitY=1;exitDx=0;exitDy=0;" edge="1" source="CQG4VoJNJDL3wfPWsIUk-6" parent="1">
          <mxGeometry relative="1" as="geometry">
            <mxPoint x="390" y="300" as="sourcePoint" />
            <mxPoint x="390" y="330" as="targetPoint" />
          </mxGeometry>
        </mxCell>
        <mxCell id="CQG4VoJNJDL3wfPWsIUk-12" value="Sim" style="rounded=0;html=1;jettySize=auto;orthogonalLoop=1;fontSize=11;endArrow=block;endFill=0;endSize=8;strokeWidth=1;shadow=0;labelBackgroundColor=none;edgeStyle=orthogonalEdgeStyle;exitX=0;exitY=0.5;exitDx=0;exitDy=0;entryX=1;entryY=0.5;entryDx=0;entryDy=0;" edge="1" source="CQG4VoJNJDL3wfPWsIUk-2" target="CQG4VoJNJDL3wfPWsIUk-13" parent="1">
          <mxGeometry y="-10" relative="1" as="geometry">
            <mxPoint x="389.83" y="390" as="sourcePoint" />
            <mxPoint x="390" y="410" as="targetPoint" />
            <mxPoint as="offset" />
          </mxGeometry>
        </mxCell>
        <mxCell id="CQG4VoJNJDL3wfPWsIUk-13" value="&lt;font face=&quot;Garamond&quot;&gt;Relatório de Vulnerabilidade&lt;/font&gt;" style="shape=parallelogram;perimeter=parallelogramPerimeter;whiteSpace=wrap;html=1;fixedSize=1;" vertex="1" parent="1">
          <mxGeometry x="180" y="345" width="120" height="30" as="geometry" />
        </mxCell>
        <mxCell id="CQG4VoJNJDL3wfPWsIUk-16" value="Não" style="rounded=0;html=1;jettySize=auto;orthogonalLoop=1;fontSize=11;endArrow=block;endFill=0;endSize=8;strokeWidth=1;shadow=0;labelBackgroundColor=none;edgeStyle=orthogonalEdgeStyle;exitX=1;exitY=0.5;exitDx=0;exitDy=0;entryX=0;entryY=0.5;entryDx=0;entryDy=0;" edge="1" source="CQG4VoJNJDL3wfPWsIUk-2" parent="1">
          <mxGeometry x="-0.3333" y="10" relative="1" as="geometry">
            <mxPoint x="490" y="350" as="sourcePoint" />
            <mxPoint x="480" y="360" as="targetPoint" />
            <mxPoint as="offset" />
          </mxGeometry>
        </mxCell>
        <mxCell id="CQG4VoJNJDL3wfPWsIUk-25" value="&lt;font face=&quot;Garamond&quot;&gt;Reportar no CVE&lt;/font&gt;" style="rounded=0;whiteSpace=wrap;html=1;" vertex="1" parent="1">
          <mxGeometry x="180" y="420" width="120" height="30" as="geometry" />
        </mxCell>
        <mxCell id="CQG4VoJNJDL3wfPWsIUk-26" value="" style="rounded=0;html=1;jettySize=auto;orthogonalLoop=1;fontSize=11;endArrow=block;endFill=0;endSize=8;strokeWidth=1;shadow=0;labelBackgroundColor=none;edgeStyle=orthogonalEdgeStyle;exitX=0.5;exitY=1;exitDx=0;exitDy=0;entryX=0.5;entryY=0;entryDx=0;entryDy=0;" edge="1" parent="1" source="CQG4VoJNJDL3wfPWsIUk-13" target="CQG4VoJNJDL3wfPWsIUk-25">
          <mxGeometry relative="1" as="geometry">
            <mxPoint x="230" y="400" as="sourcePoint" />
            <mxPoint x="230" y="440" as="targetPoint" />
          </mxGeometry>
        </mxCell>
        <mxCell id="CQG4VoJNJDL3wfPWsIUk-28" value="" style="rounded=0;html=1;jettySize=auto;orthogonalLoop=1;fontSize=11;endArrow=block;endFill=0;endSize=8;strokeWidth=1;shadow=0;labelBackgroundColor=none;edgeStyle=orthogonalEdgeStyle;exitX=1;exitY=0.5;exitDx=0;exitDy=0;entryX=0.5;entryY=1;entryDx=0;entryDy=0;" edge="1" parent="1" source="CQG4VoJNJDL3wfPWsIUk-25">
          <mxGeometry relative="1" as="geometry">
            <mxPoint x="350" y="430" as="sourcePoint" />
            <mxPoint x="540" y="375" as="targetPoint" />
          </mxGeometry>
        </mxCell>
        <mxCell id="CQG4VoJNJDL3wfPWsIUk-29" value="FIM" style="rounded=1;whiteSpace=wrap;html=1;fontSize=12;glass=0;strokeWidth=1;shadow=0;fontStyle=1" vertex="1" parent="1">
          <mxGeometry x="480" y="260" width="120" height="30" as="geometry" />
        </mxCell>
        <mxCell id="CQG4VoJNJDL3wfPWsIUk-30" value="&lt;font face=&quot;Garamond&quot;&gt;Contramedidas de Segurança&lt;/font&gt;" style="rounded=0;whiteSpace=wrap;html=1;" vertex="1" parent="1">
          <mxGeometry x="480" y="345" width="120" height="30" as="geometry" />
        </mxCell>
        <mxCell id="CQG4VoJNJDL3wfPWsIUk-32" value="" style="rounded=0;html=1;jettySize=auto;orthogonalLoop=1;fontSize=11;endArrow=block;endFill=0;endSize=8;strokeWidth=1;shadow=0;labelBackgroundColor=none;edgeStyle=orthogonalEdgeStyle;exitX=0.5;exitY=0;exitDx=0;exitDy=0;entryX=0.5;entryY=1;entryDx=0;entryDy=0;" edge="1" parent="1" source="CQG4VoJNJDL3wfPWsIUk-30" target="CQG4VoJNJDL3wfPWsIUk-29">
          <mxGeometry relative="1" as="geometry">
            <mxPoint x="600" y="300" as="sourcePoint" />
            <mxPoint x="600" y="345" as="targetPoint" />
          </mxGeometry>
        </mxCell>
      </root>
    </mxGraphModel>
  </diagram>
</mxfile>
